<svg width="512" height="512" viewBox="0 0 512 512" fill="none" xmlns="http://www.w3.org/2000/svg">
<g clip-path="url(#clip0_418_2664)">
<path d="M0 0H512V512H0V0Z" fill="#F40009"/>
<path d="M248.735 240.102H225.404C224.978 237.083 224.108 234.402 222.794 232.058C221.48 229.679 219.793 227.655 217.734 225.986C215.674 224.317 213.295 223.038 210.596 222.151C207.933 221.263 205.038 220.819 201.913 220.819C196.267 220.819 191.349 222.222 187.158 225.027C182.968 227.797 179.719 231.845 177.411 237.172C175.102 242.463 173.948 248.891 173.948 256.455C173.948 264.232 175.102 270.766 177.411 276.057C179.754 281.348 183.021 285.343 187.212 288.042C191.402 290.741 196.249 292.09 201.754 292.09C204.843 292.09 207.702 291.682 210.33 290.865C212.993 290.048 215.354 288.859 217.414 287.296C219.474 285.698 221.178 283.763 222.528 281.49C223.913 279.217 224.871 276.625 225.404 273.713L248.735 273.82C248.131 278.827 246.622 283.656 244.207 288.308C241.828 292.925 238.614 297.062 234.566 300.719C230.553 304.342 225.759 307.218 220.184 309.349C214.644 311.444 208.376 312.491 201.381 312.491C191.651 312.491 182.95 310.29 175.28 305.886C167.645 301.483 161.608 295.109 157.169 286.763C152.766 278.418 150.564 268.315 150.564 256.455C150.564 244.558 152.801 234.438 157.276 226.092C161.75 217.747 167.822 211.391 175.493 207.023C183.163 202.619 191.793 200.418 201.381 200.418C207.702 200.418 213.561 201.305 218.959 203.081C224.392 204.857 229.204 207.449 233.394 210.858C237.585 214.232 240.994 218.369 243.621 223.269C246.285 228.17 247.989 233.781 248.735 240.102ZM361.528 240.102H338.197C337.771 237.083 336.901 234.402 335.587 232.058C334.273 229.679 332.586 227.655 330.527 225.986C328.467 224.317 326.088 223.038 323.389 222.151C320.725 221.263 317.831 220.819 314.706 220.819C309.06 220.819 304.142 222.222 299.951 225.027C295.761 227.797 292.512 231.845 290.203 237.172C287.895 242.463 286.741 248.891 286.741 256.455C286.741 264.232 287.895 270.766 290.203 276.057C292.547 281.348 295.814 285.343 300.005 288.042C304.195 290.741 309.042 292.09 314.547 292.09C317.636 292.09 320.495 291.682 323.123 290.865C325.786 290.048 328.147 288.859 330.207 287.296C332.267 285.698 333.971 283.763 335.321 281.49C336.706 279.217 337.664 276.625 338.197 273.713L361.528 273.82C360.924 278.827 359.415 283.656 357 288.308C354.621 292.925 351.407 297.062 347.359 300.719C343.346 304.342 338.552 307.218 332.977 309.349C327.437 311.444 321.169 312.491 314.174 312.491C304.444 312.491 295.743 310.29 288.073 305.886C280.438 301.483 274.401 295.109 269.962 286.763C265.559 278.418 263.357 268.315 263.357 256.455C263.357 244.558 265.594 234.438 270.069 226.092C274.543 217.747 280.615 211.391 288.286 207.023C295.956 202.619 304.586 200.418 314.174 200.418C320.495 200.418 326.354 201.305 331.752 203.081C337.185 204.857 341.997 207.449 346.187 210.858C350.377 214.232 353.787 218.369 356.414 223.269C359.078 228.17 360.782 233.781 361.528 240.102Z" fill="white"/>
</g>
<defs>
<clipPath id="clip0_418_2664">
<rect width="512" height="512" fill="white"/>
</clipPath>
</defs>
</svg>
