<svg width="512" height="512" viewBox="0 0 512 512" fill="none" xmlns="http://www.w3.org/2000/svg">
<g clip-path="url(#clip0_419_2719)">
<path d="M0 0H512V512H0V0Z" fill="#475569"/>
<path d="M90.4815 311V201.909H162.712V220.925H113.546V246.92H157.918V265.936H113.546V311H90.4815ZM202.782 311L171.567 201.909H196.763L214.82 277.708H215.726L235.648 201.909H257.221L277.089 277.868H278.048L296.106 201.909H321.301L290.086 311H267.608L246.834 239.675H245.981L225.26 311H202.782ZM423.747 240.102H400.416C399.99 237.083 399.12 234.402 397.806 232.058C396.492 229.679 394.805 227.655 392.745 225.986C390.686 224.317 388.306 223.038 385.608 222.151C382.944 221.263 380.05 220.819 376.925 220.819C371.279 220.819 366.36 222.222 362.17 225.027C357.98 227.797 354.73 231.845 352.422 237.172C350.114 242.463 348.96 248.891 348.96 256.455C348.96 264.232 350.114 270.766 352.422 276.057C354.766 281.348 358.033 285.343 362.223 288.042C366.414 290.741 371.261 292.09 376.765 292.09C379.855 292.09 382.713 291.682 385.341 290.865C388.005 290.048 390.366 288.859 392.426 287.296C394.485 285.698 396.19 283.763 397.539 281.49C398.924 279.217 399.883 276.625 400.416 273.713L423.747 273.82C423.143 278.827 421.634 283.656 419.219 288.308C416.84 292.925 413.626 297.062 409.578 300.719C405.565 304.342 400.771 307.218 395.196 309.349C389.656 311.444 383.388 312.491 376.392 312.491C366.662 312.491 357.962 310.29 350.292 305.886C342.657 301.483 336.62 295.109 332.181 286.763C327.777 278.418 325.576 268.315 325.576 256.455C325.576 244.558 327.813 234.438 332.287 226.092C336.762 217.747 342.834 211.391 350.505 207.023C358.175 202.619 366.804 200.418 376.392 200.418C382.713 200.418 388.573 201.305 393.971 203.081C399.404 204.857 404.216 207.449 408.406 210.858C412.596 214.232 416.005 218.369 418.633 223.269C421.297 228.17 423.001 233.781 423.747 240.102Z" fill="white"/>
</g>
<defs>
<clipPath id="clip0_419_2719">
<rect width="512" height="512" fill="white"/>
</clipPath>
</defs>
</svg>
